<?xml version="1.0" encoding="UTF-8" standalone="no"?>
<svg
   width="56"
   height="34.349998"
   viewBox="0 0 56 34.349998"
   version="1.1"
   xmlns="http://www.w3.org/2000/svg"
   xmlns:svg="http://www.w3.org/2000/svg">
  <defs
     id="defs308" />
  <g
     id="surface1"
     transform="translate(12)">
    <path
       style="fill:#00579c;fill-opacity:1;fill-rule:nonzero;stroke:none"
       d="M 30.136719,25.761719 C 30.375,25.347656 30.523438,24.878906 30.523438,24.460938 V 9.890625 c 0,-0.421875 -0.148438,-0.886719 -0.386719,-1.304687 l -14.875,8.589843 z m 0,0"
       id="path291" />
    <path
       style="fill:#00427f;fill-opacity:1;fill-rule:nonzero;stroke:none"
       d="M 16.585938,34.035156 29.203125,26.75 c 0.363281,-0.210938 0.695313,-0.574219 0.933594,-0.988281 l -14.875,-8.585938 -14.871094,8.585938 C 0.628906,26.175781 0.957031,26.539062 1.320312,26.75 l 12.621094,7.285156 c 0.726563,0.421875 1.914063,0.421875 2.644532,0 z m 0,0"
       id="path293" />
    <path
       style="fill:#6399d1;fill-opacity:1;fill-rule:nonzero;stroke:none"
       d="M 30.136719,8.585938 C 29.898438,8.171875 29.566406,7.808594 29.203125,7.601562 L 16.585938,0.316406 c -0.730469,-0.421875 -1.917969,-0.421875 -2.644532,0 L 1.320312,7.601562 C 0.59375,8.019531 0,9.050781 0,9.890625 v 14.570313 c 0,0.417968 0.148438,0.886718 0.390625,1.300781 z m 0,0"
       id="path295" />
    <path
       style="fill:#ffffff;fill-opacity:1;fill-rule:nonzero;stroke:none"
       d="M 15.261719,27.351562 C 9.652344,27.351562 5.085938,22.785156 5.085938,17.175781 5.085938,11.566406 9.652344,7 15.261719,7 c 3.621093,0 6.996093,1.949219 8.8125,5.085938 l -4.402344,2.546874 c -0.910156,-1.570312 -2.597656,-2.542968 -4.410156,-2.542968 -2.804688,0 -5.085938,2.28125 -5.085938,5.085937 0,2.804688 2.28125,5.085938 5.085938,5.085938 1.8125,0 3.5,-0.972657 4.410156,-2.546875 l 4.402344,2.550781 c -1.816407,3.136719 -5.191407,5.085937 -8.8125,5.085937 z m 0,0"
       id="path297" />
    <path
       style="fill:#ffffff;fill-opacity:1;fill-rule:nonzero;stroke:none"
       d="m 25.4375,16.609375 h -1.132812 v -1.128906 h -1.128907 v 1.128906 h -1.128906 v 1.132813 h 1.128906 v 1.128906 h 1.128907 V 17.742188 H 25.4375 Z m 0,0"
       id="path299" />
    <path
       style="fill:#ffffff;fill-opacity:1;fill-rule:nonzero;stroke:none"
       d="m 29.675781,16.609375 h -1.128906 v -1.128906 h -1.132813 v 1.128906 h -1.128906 v 1.132813 h 1.128906 v 1.128906 h 1.132813 v -1.128906 h 1.128906 z m 0,0"
       id="path301" />
  </g>
</svg>
