<?xml version="1.0" encoding="UTF-8"?>
<svg xmlns="http://www.w3.org/2000/svg" xmlns:xlink="http://www.w3.org/1999/xlink" width="92" height="103.530067" viewBox="0 0 92 103.530067" version="1.1">
<g id="surface1">
<path style=" stroke:none;fill-rule:nonzero;fill:rgb(0%,34.901962%,61.176473%);fill-opacity:1;" d="M 90.828125 77.648438 C 91.550781 76.398438 92 74.988281 92 73.722656 L 92 29.808594 C 92 28.542969 91.550781 27.132812 90.828125 25.882812 L 46 51.765625 Z M 90.828125 77.648438 "/>
<path style=" stroke:none;fill-rule:nonzero;fill:rgb(0%,26.666668%,50.980395%);fill-opacity:1;" d="M 49.984375 102.582031 L 88.015625 80.621094 C 89.113281 79.992188 90.109375 78.898438 90.828125 77.648438 L 46 51.765625 L 1.171875 77.648438 C 1.890625 78.898438 2.886719 79.992188 3.984375 80.621094 L 42.015625 102.582031 C 44.207031 103.847656 47.792969 103.847656 49.984375 102.582031 Z M 49.984375 102.582031 "/>
<path style=" stroke:none;fill-rule:nonzero;fill:rgb(39.607844%,60.392159%,82.352942%);fill-opacity:1;" d="M 90.828125 25.882812 C 90.109375 24.632812 89.113281 23.539062 88.015625 22.90625 L 49.984375 0.949219 C 47.792969 -0.316406 44.207031 -0.316406 42.015625 0.949219 L 3.984375 22.90625 C 1.792969 24.171875 0 27.277344 0 29.808594 L 0 73.722656 C 0 74.988281 0.449219 76.398438 1.171875 77.648438 Z M 90.828125 25.882812 "/>
<path style=" stroke:none;fill-rule:nonzero;fill:rgb(100%,100%,100%);fill-opacity:1;" d="M 46 82.433594 C 29.089844 82.433594 15.332031 68.675781 15.332031 51.765625 C 15.332031 34.855469 29.089844 21.097656 46 21.097656 C 56.910156 21.097656 67.085938 26.96875 72.558594 36.421875 L 59.285156 44.101562 C 56.546875 39.371094 51.457031 36.433594 46 36.433594 C 37.546875 36.433594 30.667969 43.308594 30.667969 51.765625 C 30.667969 60.21875 37.546875 67.097656 46 67.097656 C 51.457031 67.097656 56.546875 64.160156 59.285156 59.425781 L 72.558594 67.105469 C 67.089844 76.558594 56.910156 82.433594 46 82.433594 Z M 46 82.433594 "/>
<path style=" stroke:none;fill-rule:nonzero;fill:rgb(100%,100%,100%);fill-opacity:1;" d="M 76.667969 50.0625 L 73.257812 50.0625 L 73.257812 46.652344 L 69.851562 46.652344 L 69.851562 50.0625 L 66.445312 50.0625 L 66.445312 53.46875 L 69.851562 53.46875 L 69.851562 56.875 L 73.257812 56.875 L 73.257812 53.46875 L 76.667969 53.46875 Z M 76.667969 50.0625 "/>
<path style=" stroke:none;fill-rule:nonzero;fill:rgb(100%,100%,100%);fill-opacity:1;" d="M 89.445312 50.0625 L 86.035156 50.0625 L 86.035156 46.652344 L 82.628906 46.652344 L 82.628906 50.0625 L 79.222656 50.0625 L 79.222656 53.46875 L 82.628906 53.46875 L 82.628906 56.875 L 86.035156 56.875 L 86.035156 53.46875 L 89.445312 53.46875 Z M 89.445312 50.0625 "/>
</g>
</svg>
