<?xml version="1.0" encoding="UTF-8"?>
<svg xmlns="http://www.w3.org/2000/svg" xmlns:xlink="http://www.w3.org/1999/xlink" width="30.524464" height="34.349998" viewBox="0 0 30.524464 34.349998" version="1.1">
<g id="surface1">
<path style=" stroke:none;fill-rule:nonzero;fill:rgb(0%,34.901962%,61.176473%);fill-opacity:1;" d="M 30.136719 25.761719 C 30.375 25.347656 30.523438 24.878906 30.523438 24.460938 L 30.523438 9.890625 C 30.523438 9.46875 30.375 9.003906 30.136719 8.585938 L 15.261719 17.175781 Z M 30.136719 25.761719 "/>
<path style=" stroke:none;fill-rule:nonzero;fill:rgb(0%,26.666668%,50.980395%);fill-opacity:1;" d="M 16.585938 34.035156 L 29.203125 26.75 C 29.566406 26.539062 29.898438 26.175781 30.136719 25.761719 L 15.261719 17.175781 L 0.390625 25.761719 C 0.628906 26.175781 0.957031 26.539062 1.320312 26.75 L 13.941406 34.035156 C 14.667969 34.457031 15.855469 34.457031 16.585938 34.035156 Z M 16.585938 34.035156 "/>
<path style=" stroke:none;fill-rule:nonzero;fill:rgb(39.607844%,60.392159%,82.352942%);fill-opacity:1;" d="M 30.136719 8.585938 C 29.898438 8.171875 29.566406 7.808594 29.203125 7.601562 L 16.585938 0.316406 C 15.855469 -0.105469 14.667969 -0.105469 13.941406 0.316406 L 1.320312 7.601562 C 0.59375 8.019531 0 9.050781 0 9.890625 L 0 24.460938 C 0 24.878906 0.148438 25.347656 0.390625 25.761719 Z M 30.136719 8.585938 "/>
<path style=" stroke:none;fill-rule:nonzero;fill:rgb(100%,100%,100%);fill-opacity:1;" d="M 15.261719 27.351562 C 9.652344 27.351562 5.085938 22.785156 5.085938 17.175781 C 5.085938 11.566406 9.652344 7 15.261719 7 C 18.882812 7 22.257812 8.949219 24.074219 12.085938 L 19.671875 14.632812 C 18.761719 13.0625 17.074219 12.089844 15.261719 12.089844 C 12.457031 12.089844 10.175781 14.371094 10.175781 17.175781 C 10.175781 19.980469 12.457031 22.261719 15.261719 22.261719 C 17.074219 22.261719 18.761719 21.289062 19.671875 19.714844 L 24.074219 22.265625 C 22.257812 25.402344 18.882812 27.351562 15.261719 27.351562 Z M 15.261719 27.351562 "/>
<path style=" stroke:none;fill-rule:nonzero;fill:rgb(100%,100%,100%);fill-opacity:1;" d="M 25.4375 16.609375 L 24.304688 16.609375 L 24.304688 15.480469 L 23.175781 15.480469 L 23.175781 16.609375 L 22.046875 16.609375 L 22.046875 17.742188 L 23.175781 17.742188 L 23.175781 18.871094 L 24.304688 18.871094 L 24.304688 17.742188 L 25.4375 17.742188 Z M 25.4375 16.609375 "/>
<path style=" stroke:none;fill-rule:nonzero;fill:rgb(100%,100%,100%);fill-opacity:1;" d="M 29.675781 16.609375 L 28.546875 16.609375 L 28.546875 15.480469 L 27.414062 15.480469 L 27.414062 16.609375 L 26.285156 16.609375 L 26.285156 17.742188 L 27.414062 17.742188 L 27.414062 18.871094 L 28.546875 18.871094 L 28.546875 17.742188 L 29.675781 17.742188 Z M 29.675781 16.609375 "/>
</g>
</svg>
