<?xml version="1.0" encoding="UTF-8"?>
<svg xmlns="http://www.w3.org/2000/svg" xmlns:xlink="http://www.w3.org/1999/xlink" width="92" height="34.35443" viewBox="0 0 92 34.35443" version="1.1">
<g id="surface1">
<path style=" stroke:none;fill-rule:nonzero;fill:rgb(0%,67.450982%,84.313726%);fill-opacity:1;" d="M 6.941406 10.390625 C 6.761719 10.390625 6.71875 10.300781 6.808594 10.167969 L 7.75 8.957031 C 7.839844 8.824219 8.0625 8.734375 8.242188 8.734375 L 24.230469 8.734375 C 24.410156 8.734375 24.457031 8.867188 24.367188 9.003906 L 23.605469 10.167969 C 23.515625 10.300781 23.292969 10.4375 23.15625 10.4375 Z M 6.941406 10.390625 "/>
<path style=" stroke:none;fill-rule:nonzero;fill:rgb(0%,67.450982%,84.313726%);fill-opacity:1;" d="M 0.179688 14.511719 C 0 14.511719 -0.0429688 14.421875 0.0429688 14.289062 L 0.984375 13.078125 C 1.074219 12.945312 1.300781 12.855469 1.476562 12.855469 L 21.902344 12.855469 C 22.082031 12.855469 22.171875 12.988281 22.125 13.125 L 21.769531 14.199219 C 21.722656 14.378906 21.542969 14.46875 21.363281 14.46875 Z M 0.179688 14.511719 "/>
<path style=" stroke:none;fill-rule:nonzero;fill:rgb(0%,67.450982%,84.313726%);fill-opacity:1;" d="M 11.019531 18.632812 C 10.839844 18.632812 10.792969 18.5 10.882812 18.363281 L 11.511719 17.246094 C 11.601562 17.109375 11.78125 16.976562 11.960938 16.976562 L 20.917969 16.976562 C 21.097656 16.976562 21.1875 17.109375 21.1875 17.289062 L 21.097656 18.363281 C 21.097656 18.542969 20.917969 18.675781 20.78125 18.675781 Z M 11.019531 18.632812 "/>
<path style=" stroke:none;fill-rule:nonzero;fill:rgb(0%,67.450982%,84.313726%);fill-opacity:1;" d="M 57.511719 9.585938 C 54.6875 10.300781 52.761719 10.839844 49.988281 11.554688 C 49.316406 11.734375 49.269531 11.78125 48.6875 11.109375 C 48.015625 10.347656 47.523438 9.855469 46.582031 9.40625 C 43.761719 8.015625 41.027344 8.421875 38.476562 10.078125 C 35.429688 12.046875 33.863281 14.960938 33.90625 18.589844 C 33.953125 22.171875 36.414062 25.128906 39.953125 25.621094 C 43 26.023438 45.550781 24.949219 47.566406 22.664062 C 47.972656 22.171875 48.328125 21.632812 48.777344 21.007812 C 47.164062 21.007812 45.148438 21.007812 40.132812 21.007812 C 39.191406 21.007812 38.96875 20.425781 39.28125 19.664062 C 39.863281 18.273438 40.9375 15.945312 41.566406 14.78125 C 41.699219 14.511719 42.011719 14.0625 42.683594 14.0625 C 44.96875 14.0625 53.390625 14.0625 58.988281 14.0625 C 58.898438 15.273438 58.898438 16.484375 58.71875 17.691406 C 58.226562 20.917969 57.019531 23.875 55.046875 26.472656 C 51.824219 30.726562 47.613281 33.367188 42.28125 34.085938 C 37.894531 34.667969 33.816406 33.816406 30.234375 31.128906 C 26.917969 28.621094 25.039062 25.308594 24.546875 21.1875 C 23.964844 16.304688 25.394531 11.914062 28.351562 8.0625 C 31.53125 3.898438 35.742188 1.253906 40.894531 0.3125 C 45.105469 -0.449219 49.136719 0.0429688 52.761719 2.507812 C 55.136719 4.074219 56.839844 6.226562 57.960938 8.824219 C 58.226562 9.226562 58.046875 9.449219 57.511719 9.585938 Z M 57.511719 9.585938 "/>
<path style=" stroke:none;fill-rule:nonzero;fill:rgb(0%,67.450982%,84.313726%);fill-opacity:1;" d="M 72.335938 34.355469 C 68.261719 34.265625 64.542969 33.101562 61.40625 30.414062 C 58.765625 28.128906 57.109375 25.21875 56.570312 21.769531 C 55.765625 16.707031 57.152344 12.226562 60.199219 8.242188 C 63.46875 3.941406 67.410156 1.703125 72.738281 0.761719 C 77.308594 -0.0429688 81.609375 0.402344 85.503906 3.046875 C 89.042969 5.464844 91.238281 8.734375 91.820312 13.035156 C 92.582031 19.082031 90.835938 24.007812 86.667969 28.21875 C 83.714844 31.21875 80.085938 33.101562 75.921875 33.953125 C 74.710938 34.175781 73.5 34.21875 72.335938 34.355469 Z M 82.996094 16.257812 C 82.953125 15.675781 82.953125 15.230469 82.863281 14.78125 C 82.054688 10.347656 77.980469 7.839844 73.726562 8.824219 C 69.558594 9.765625 66.871094 12.40625 65.886719 16.617188 C 65.082031 20.109375 66.78125 23.648438 70.007812 25.082031 C 72.472656 26.15625 74.933594 26.023438 77.308594 24.8125 C 80.847656 22.976562 82.773438 20.109375 82.996094 16.257812 Z M 82.996094 16.257812 "/>
</g>
</svg>
